<svg enable-background="new 0 0 510 510" height="512" viewBox="0 0 510 510" width="512" xmlns="http://www.w3.org/2000/svg" xmlns:xlink="http://www.w3.org/1999/xlink"><linearGradient id="SVGID_1_" gradientUnits="userSpaceOnUse" x1="126.75" x2="352.884" y1="126.75" y2="352.884"><stop offset="0" stop-color="#fec165"/><stop offset="1" stop-color="#f46700"/></linearGradient><linearGradient id="lg1"><stop offset="0" stop-color="#fea613" stop-opacity="0"/><stop offset=".26" stop-color="#f9911e" stop-opacity=".26"/><stop offset=".7954" stop-color="#ee5a39" stop-opacity=".795"/><stop offset="1" stop-color="#e94444"/></linearGradient><linearGradient id="SVGID_00000058582227490767346320000007206845968733581961_" gradientUnits="userSpaceOnUse" x1="0" x2="375.481" xlink:href="#lg1" y1="0" y2="375.481"/><linearGradient id="SVGID_00000147936636790925835890000005360535079791707271_" gradientUnits="userSpaceOnUse" x1="383" x2="266.996" y1="383" y2="266.996"><stop offset="0" stop-color="#e94444" stop-opacity="0"/><stop offset="1" stop-color="#e94444"/></linearGradient><linearGradient id="lg2"><stop offset="0" stop-color="#fee97d"/><stop offset="1" stop-color="#fac600"/></linearGradient><linearGradient id="SVGID_00000093891419634283875120000005599357068634936249_" gradientUnits="userSpaceOnUse" x1="156.141" x2="649.543" xlink:href="#lg2" y1="-76.005" y2="417.398"/><linearGradient id="SVGID_00000167384481844279082320000014465134813372949154_" gradientUnits="userSpaceOnUse" x1="-76.005" x2="417.398" xlink:href="#lg2" y1="156.141" y2="649.543"/><linearGradient id="SVGID_00000171683606130594835820000003594836239976351935_" gradientUnits="userSpaceOnUse" x1="198.893" x2="692.295" xlink:href="#lg2" y1="-118.757" y2="374.646"/><linearGradient id="SVGID_00000070116423073935843090000018066759652582604975_" gradientUnits="userSpaceOnUse" x1="81.546" x2="574.948" xlink:href="#lg2" y1="-1.41" y2="491.993"/><linearGradient id="SVGID_00000123419478317599743810000001044858596021696139_" gradientUnits="userSpaceOnUse" x1="-1.41" x2="491.993" xlink:href="#lg2" y1="81.546" y2="574.948"/><linearGradient id="SVGID_00000063607953627407784710000002026676087032226481_" gradientUnits="userSpaceOnUse" x1="-118.757" x2="374.646" xlink:href="#lg2" y1="198.893" y2="692.295"/><linearGradient id="SVGID_00000106842961769248020000000013853186381931942046_" gradientUnits="userSpaceOnUse" x1="201" x2="305.511" xlink:href="#lg2" y1="201" y2="305.511"/><linearGradient id="SVGID_00000176034281762434110770000014107227217409142184_" gradientUnits="userSpaceOnUse" x1="255" x2="255" xlink:href="#lg1" y1="293.333" y2="455.368"/><g><g><path d="m269.305 68.339 22.775-20.785c11.438-10.439 29.844-5.507 34.53 9.252l9.332 29.388c3.32 10.455 14.062 16.657 24.776 14.305l30.116-6.612c15.125-3.321 28.599 10.153 25.278 25.278l-6.612 30.116c-2.353 10.715 3.849 21.456 14.305 24.776l29.388 9.332c14.759 4.687 19.691 23.092 9.252 34.53l-20.785 22.775c-7.395 8.103-7.395 20.506 0 28.609l20.785 22.775c10.439 11.438 5.507 29.844-9.252 34.53l-29.388 9.332c-10.455 3.32-16.657 14.062-14.305 24.776l6.612 30.116c3.321 15.125-10.153 28.599-25.278 25.278l-30.116-6.612c-10.715-2.353-21.456 3.849-24.776 14.305l-9.332 29.388c-4.687 14.759-23.092 19.691-34.53 9.252l-22.775-20.785c-8.103-7.395-20.506-7.395-28.609 0l-22.775 20.785c-11.438 10.439-29.844 5.507-34.53-9.252l-9.332-29.388c-3.32-10.455-14.062-16.657-24.776-14.305l-30.116 6.612c-15.125 3.321-28.599-10.153-25.278-25.278l6.612-30.116c2.353-10.715-3.849-21.456-14.305-24.776l-29.388-9.332c-14.759-4.687-19.691-23.092-9.252-34.53l20.785-22.775c7.395-8.103 7.395-20.506 0-28.609l-20.786-22.774c-10.439-11.438-5.507-29.844 9.252-34.53l29.388-9.332c10.455-3.32 16.657-14.062 14.305-24.776l-6.612-30.116c-3.321-15.125 10.153-28.599 25.278-25.278l30.116 6.612c10.715 2.353 21.456-3.849 24.776-14.305l9.332-29.388c4.687-14.759 23.092-19.691 34.53-9.252l22.775 20.785c8.103 7.394 20.507 7.394 28.61-.001z" fill="url(#SVGID_1_)"/><path d="m197.885 416.239c-6.122-19.28-23.82-32.235-44.04-32.235-3.326 0-6.666.363-9.926 1.079l-2.184.48c-10.35 2.272-19.57-6.948-17.297-17.298l.48-2.185c5.157-23.489-8.238-46.689-31.158-53.966l-2.13-.676c-10.1-3.207-13.474-15.802-6.331-23.629l1.508-1.652c16.21-17.763 16.21-44.552 0-62.314l-1.508-1.652c-7.143-7.827-3.768-20.421 6.331-23.628l2.133-.677c22.918-7.275 36.314-30.476 31.157-53.965l-.48-2.185c-2.273-10.35 6.947-19.57 17.297-17.298l2.184.48c3.26.716 6.6 1.079 9.926 1.079 20.22 0 37.918-12.955 44.04-32.236l.677-2.131c3.207-10.099 15.801-13.474 23.628-6.331l1.653 1.508c8.535 7.789 19.601 12.08 31.157 12.08 11.557 0 22.622-4.291 31.158-12.082l1.651-1.507c7.827-7.142 20.421-3.768 23.628 6.331l.677 2.133c6.12 19.28 23.818 32.235 44.039 32.235 3.326 0 6.666-.363 9.926-1.079l2.185-.48c10.35-2.272 19.57 6.947 17.297 17.297l-.48 2.185c-5.157 23.489 8.237 46.689 31.158 53.966l2.13.676c10.099 3.207 13.474 15.801 6.331 23.628l-1.509 1.653c-16.211 17.761-16.211 44.552.002 62.314l1.507 1.651c7.142 7.827 3.768 20.421-6.331 23.628l-2.133.677c-22.919 7.275-36.313 30.476-31.156 53.965l.48 2.185c2.272 10.35-6.947 19.57-17.297 17.297l-2.185-.48c-3.26-.716-6.6-1.079-9.926-1.079-20.221 0-37.919 12.955-44.04 32.237l-.676 2.13c-3.207 10.099-15.801 13.474-23.628 6.331l-1.653-1.509c-8.534-7.789-19.6-12.08-31.156-12.08s-22.622 4.291-31.158 12.081l-1.652 1.507c-7.827 7.143-20.421 3.768-23.628-6.331z" fill="url(#SVGID_00000058582227490767346320000007206845968733581961_)"/><path d="m444.015 238.115-86.065-86.065-205.9 205.9 86.065 86.065 2.58-2.355c8.103-7.395 20.506-7.395 28.609 0l22.775 20.785c11.438 10.438 29.844 5.507 34.53-9.252l9.332-29.388c3.32-10.455 14.062-16.657 24.776-14.305l30.116 6.612c15.125 3.321 28.599-10.153 25.278-25.278l-6.612-30.116c-2.353-10.715 3.849-21.456 14.305-24.776l29.388-9.332c14.759-4.687 19.691-23.092 9.252-34.53l-20.785-22.775c-7.395-8.103-7.395-20.506 0-28.609z" fill="url(#SVGID_00000147936636790925835890000005360535079791707271_)"/></g><g><path d="m255 0c-4.142 0-7.5 3.358-7.5 7.5v30.71c0 4.142 3.358 7.5 7.5 7.5s7.5-3.358 7.5-7.5v-30.71c0-4.142-3.358-7.5-7.5-7.5z" fill="url(#SVGID_00000093891419634283875120000005599357068634936249_)"/><path d="m502.5 247.5h-30.71c-4.142 0-7.5 3.358-7.5 7.5s3.358 7.5 7.5 7.5h30.71c4.142 0 7.5-3.358 7.5-7.5s-3.358-7.5-7.5-7.5z" fill="url(#SVGID_00000093891419634283875120000005599357068634936249_)"/><path d="m45.71 255c0-4.142-3.358-7.5-7.5-7.5h-30.71c-4.142 0-7.5 3.358-7.5 7.5s3.358 7.5 7.5 7.5h30.71c4.142 0 7.5-3.358 7.5-7.5z" fill="url(#SVGID_00000167384481844279082320000014465134813372949154_)"/><path d="m445.845 151.886 26.498-15.524c3.574-2.094 4.774-6.688 2.68-10.262s-6.688-4.774-10.262-2.68l-26.498 15.524c-3.574 2.094-4.774 6.688-2.68 10.262s6.688 4.774 10.262 2.68z" fill="url(#SVGID_00000171683606130594835820000003594836239976351935_)"/><path d="m138.944 71.738c2.094 3.574 6.688 4.774 10.262 2.68s4.774-6.688 2.68-10.262l-15.524-26.498c-2.094-3.574-6.688-4.774-10.262-2.68s-4.774 6.688-2.68 10.262z" fill="url(#SVGID_00000070116423073935843090000018066759652582604975_)"/><path d="m71.738 138.944-26.498-15.524c-3.574-2.094-8.169-.894-10.262 2.68s-.894 8.169 2.68 10.262l26.498 15.524c3.574 2.094 8.169.894 10.262-2.68s.894-8.168-2.68-10.262z" fill="url(#SVGID_00000123419478317599743810000001044858596021696139_)"/><path d="m383.9 34.978c-3.574-2.094-8.169-.894-10.262 2.68l-15.524 26.498c-2.094 3.574-.894 8.168 2.68 10.262s8.169.894 10.262-2.68l15.524-26.498c2.094-3.574.894-8.169-2.68-10.262z" fill="url(#SVGID_00000171683606130594835820000003594836239976351935_)"/><path d="m255 464.29c-4.142 0-7.5 3.358-7.5 7.5v30.71c0 4.142 3.358 7.5 7.5 7.5s7.5-3.358 7.5-7.5v-30.71c0-4.142-3.358-7.5-7.5-7.5z" fill="url(#SVGID_00000167384481844279082320000014465134813372949154_)"/><path d="m64.155 358.114-26.498 15.524c-3.574 2.094-4.774 6.688-2.68 10.262s6.688 4.774 10.262 2.68l26.498-15.524c3.574-2.094 4.774-6.688 2.68-10.262s-6.688-4.774-10.262-2.68z" fill="url(#SVGID_00000063607953627407784710000002026676087032226481_)"/><path d="m371.056 438.262c-2.094-3.574-6.688-4.774-10.262-2.68s-4.774 6.688-2.68 10.262l15.524 26.498c2.094 3.574 6.688 4.774 10.262 2.68s4.774-6.688 2.68-10.262z" fill="url(#SVGID_00000123419478317599743810000001044858596021696139_)"/><path d="m472.342 373.637-26.498-15.524c-3.574-2.094-8.168-.894-10.262 2.68s-.894 8.169 2.68 10.262l26.498 15.524c3.574 2.094 8.169.894 10.262-2.68s.894-8.168-2.68-10.262z" fill="url(#SVGID_00000070116423073935843090000018066759652582604975_)"/><path d="m149.206 435.583c-3.574-2.094-8.169-.894-10.262 2.68l-15.524 26.497c-2.094 3.574-.894 8.169 2.68 10.262s8.169.894 10.262-2.68l15.524-26.498c2.094-3.573.894-8.168-2.68-10.261z" fill="url(#SVGID_00000063607953627407784710000002026676087032226481_)"/></g><g><circle cx="255" cy="255" fill="url(#SVGID_00000106842961769248020000000013853186381931942046_)" r="145.594"/><path d="m152.05 357.95c56.858 56.858 149.043 56.858 205.9 0 33.016-33.016 46.855-77.944 41.527-120.95h-288.954c-5.328 43.006 8.511 87.934 41.527 120.95z" fill="url(#SVGID_00000176034281762434110770000014107227217409142184_)"/></g></g></svg>
